# xmcd
#
# Track frame offsets: 
#        150
#        14162
#        36230
#        50897
#        61837
#        73977
#        86935
#        97877
#        109550
#        121092
#        136140
#        150077
#        166015
#        181377
#        195057
#        215095
#        228285
#        240545
#        254832
#        269957
#
# Disc length: 3808 seconds
#
# Revision: 3
# Processed by: cddbd v1.5.2PL0 Copyright (c) Steve Scherf et al.
# Submitted via: ExactAudioCopy v0.99pb4
#
DISCID=1b0ede14
DTITLE=Glen Campbell - The Glen Campbell Collection - Disc 2
DYEAR=1900
DGENRE=Country
TTITLE0=Rhinestone Cowboy
TTITLE1=MacAuthur Park
TTITLE2=Little Green Apples
TTITLE3=Running Scared
TTITLE4=Homeward Bound
TTITLE5=Rose Garden
TTITLE6=The World I Used To Know
TTITLE7=Roll Me Easy
TTITLE8=United We Stand
TTITLE9=Your Cheatin' Heart
TTITLE10=Country Boy
TTITLE11=Oh Happy Day
TTITLE12=Ocean In His Eyes
TTITLE13=Mary In The Morning
TTITLE14=Amazing Grace
TTITLE15=You'll Never Walk Alone
TTITLE16=I Can't Help It (If I'm Still In Love With You)
TTITLE17=She Thinks I Still Care
TTITLE18=Scarborough Fair/Canticle
TTITLE19=He Ain't Heavy, He's My Brother
EXTD=
EXTT0=
EXTT1=
EXTT2=
EXTT3=
EXTT4=
EXTT5=
EXTT6=
EXTT7=
EXTT8=
EXTT9=
EXTT10=
EXTT11=
EXTT12=
EXTT13=
EXTT14=
EXTT15=
EXTT16=
EXTT17=
EXTT18=
EXTT19=
PLAYORDER=
